<svg width="48" height="48" viewBox="0 0 48 48" fill="none" xmlns="http://www.w3.org/2000/svg">
  <defs>
    <radialGradient id="radial" cx="50%" cy="50%" r="70%" fx="50%" fy="50%">
      <stop offset="0%" stop-color="#5be9c8"/>
      <stop offset="100%" stop-color="#1976d2"/>
    </radialGradient>
  </defs>
  <circle cx="24" cy="24" r="22" fill="url(#radial)" stroke="#fff" stroke-width="2"/>
  <path d="M24 13c-5.5 0-10 4.5-10 10 0 5 3.8 9.2 8.7 9.9v-6.3h-2.6v-3.6h2.6v-2.2c0-2.6 1.6-4 3.8-4 1.1 0 2.1.1 2.4.1v2.8h-1.4c-1.1 0-1.3.5-1.3 1.2v1.9h2.7l-.4 3.6h-2.3v6.3C30.2 32.2 34 28 34 23c0-5.5-4.5-10-10-10z" fill="#fff"/>
  <text x="24" y="44" text-anchor="middle" font-size="8" fill="#fff" font-family="serif">GW</text>
</svg>
